<svg xmlns="http://www.w3.org/2000/svg" viewBox="0 0 1774.29 301.29"><defs><style>.cls-1{fill:#fff;}</style></defs><g id="Layer_2" data-name="Layer 2"><g id="Layer_1-2" data-name="Layer 1"><path class="cls-1" d="M156.89,136.81c-5.94,17.47-11,36.43-16.9,54.65h-1.81c-5.94-18.22-11.12-37.18-17.06-54.65L73.06,5.29H0v296H60.07V192.66c0-28.85-5.4-71.93-8.56-100.57h1.82l23.63,70,42,113.4h37.17L198,162.14l24.3-70h1.82c-3.15,28.64-8.56,71.72-8.56,100.57V301.29h61V5.29H203.45Z"/><path class="cls-1" d="M401.45,5.29l-93,296h68.46L415.8,151.38c8.23-29.6,16.14-64.22,23.3-95.48h1.82c7.91,30.88,15.82,65.88,24.06,95.48l38.75,149.91H574.6l-93-296Z"/><path class="cls-1" d="M824.12,97.46c0-70.37-51.49-92.17-114.32-92.17H603.12v296h67V194.76h36.83l56.56,106.53H838.4l-67-118.39C803,168.62,824.12,141,824.12,97.46Zm-154-39h34.26c35.23,0,54.15,9.77,54.15,39,0,29.11-18.92,44.18-54.15,44.18H670.08Z"/><polygon class="cls-1" points="849.97 5.29 849.97 61.41 931.5 61.41 931.5 301.29 998.47 301.29 998.47 61.41 1080 61.41 1080 5.29 849.97 5.29"/><path class="cls-1" d="M1134.66,5.2h67c60.26,0,96.45,21,96.45,79.57,0,56-35.54,83.21-94.84,83.21h-50.08V290.8h-18.58Zm64,146c54.37,0,80.38-19.41,80.38-66.39C1279,37,1252,22,1197,22h-43.78V151.16Z"/><path class="cls-1" d="M1339.28,147.09C1339.28,56.69,1384.92,0,1448.9,0s109.62,56.73,109.62,147.09S1512.88,296,1448.9,296,1339.28,237.49,1339.28,147.09Zm199.78,0c0-79.22-36.11-129-90.16-129s-90.15,49.76-90.15,129,36.11,130.8,90.15,130.8S1539.06,226.31,1539.06,147.09Z"/><path class="cls-1" d="M1599.23,253l12-13.69c19.31,23.45,47.09,38.62,78.12,38.62,40.63,0,66.24-23.36,66.24-57.38,0-35.67-21.69-47-47.9-59.68l-40.36-19.42c-23.18-11-54-28.73-54-71,0-41.47,33.12-70.38,77.39-70.38,32.07,0,57.92,15.65,74.16,34.19l-10.75,13.26c-15.59-17.72-36.75-29.34-63.41-29.34-35.14,0-58.73,20.16-58.73,51.06,0,33.33,26.58,45.89,46,55.08l40.27,19.29c29.8,14.26,56,31.89,56,75.58S1740.76,296,1689.15,296C1650.21,296,1620.24,278.32,1599.23,253Z"/></g></g></svg>